<svg xmlns="http://www.w3.org/2000/svg" viewBox="0 0 960 960">
  <!-- Simple light bulb silhouette -->
  <path d="M480 80c-132 0-240 108-240 240 0 88 48 165 120 207v73c0 22 18 40 40 40h160c22 0 40-18 40-40v-73c72-42 120-119 120-207 0-132-108-240-240-240z" fill="#4A90D9"/>
  <rect x="400" y="680" width="160" height="30" rx="15" fill="#4A90D9"/>
  <rect x="400" y="730" width="160" height="30" rx="15" fill="#4A90D9"/>
  <path d="M430 780h100l-10 60c0 22-18 40-40 40s-40-18-40-40z" fill="#4A90D9"/>
</svg>
